<svg fill="none" height="100%" width="100%" viewBox="0 0 700 700" xmlns:xlink="http://www.w3.org/1999/xlink" xmlns="http://www.w3.org/2000/svg"><g transform="matrix(1,0,0,1,0,0)" id="i0"><g id="i1" transform="matrix(1,0,0,1,350,420.568)"><path fill="#ed509e" d="M225.096,185.432C225.096,185.432,-225.093,185.432,-225.093,185.432C-242.162,185.432,-255.999,171.596,-255.999,154.527C-255.999,154.527,-255.999,-154.527,-255.999,-154.527C-255.999,-171.596,-242.162,-185.432,-225.094,-185.432C-225.094,-185.432,225.094,-185.432,225.094,-185.432C242.163,-185.432,255.999,-171.595,255.999,-154.527C255.999,-154.527,255.999,154.527,255.999,154.527C256,171.596,242.164,185.432,225.096,185.432Z" /></g><g id="i2" transform="matrix(1,0,0,1,575.095,420.567)"><path fill="#a81752" d="M0,-185.432C0,-185.432,-30.905,-185.432,-30.905,-185.432C-13.836,-185.432,0,-171.595,0,-154.527C0,-154.527,0,154.527,0,154.527C0,171.596,-13.837,185.432,-30.905,185.432C-30.905,185.432,0,185.432,0,185.432C17.068,185.433,30.905,171.597,30.905,154.528C30.905,154.528,30.905,-154.526,30.905,-154.526C30.905,-171.595,17.068,-185.432,0,-185.432C0,-185.432,0,-185.432,0,-185.432Z" /></g><g id="i3" transform="matrix(1,0,0,1,237.453,549.128)"><path fill="#edbad4" d="M112.547,23.907C112.547,23.907,-108.547,23.907,-108.547,23.907C-110.756,23.907,-112.547,22.116,-112.547,19.907C-112.547,19.907,-112.547,-23.907,-112.547,-23.907C-112.547,-23.907,112.547,-23.907,112.547,-23.907C112.547,-23.907,112.547,23.907,112.547,23.907Z" /></g><g id="i4" transform="matrix(1,0,0,1,462.548,549.128)"><path fill="#e0aec7" d="M108.548,23.907C108.548,23.907,-112.548,23.907,-112.548,23.907C-112.548,23.907,-112.548,-23.907,-112.548,-23.907C-112.548,-23.907,112.548,-23.907,112.548,-23.907C112.548,-23.907,112.548,19.907,112.548,19.907C112.548,22.116,110.757,23.907,108.548,23.907Z" /></g><g id="i5" transform="matrix(1,0,0,1,237.453,375.755)"><path fill="#fbdfed" d="M112.547,166.374C112.547,166.374,-108.547,166.374,-108.547,166.374C-110.756,166.374,-112.547,164.583,-112.547,162.374C-112.547,162.374,-112.547,-162.374,-112.547,-162.374C-112.547,-164.583,-110.756,-166.374,-108.547,-166.374C-108.547,-166.374,112.547,-166.374,112.547,-166.374C112.547,-166.374,112.547,166.374,112.547,166.374Z" /></g></g><g transform="matrix(1,0,0,1,462.548,375.755)" id="i6"><g id="i5"><path fill="#edbad4" d="M108.548,166.374C108.548,166.374,-112.548,166.374,-112.548,166.374C-112.548,166.374,-112.548,-166.374,-112.548,-166.374C-112.548,-166.374,108.548,-166.374,108.548,-166.374C110.757,-166.374,112.548,-164.583,112.548,-162.374C112.548,-162.374,112.548,162.374,112.548,162.374C112.548,164.583,110.757,166.374,108.548,166.374Z" /></g></g><g opacity="0" id="i7"><animate repeatCount="indefinite" attributeName="opacity" dur="2.7s" begin="0s" fill="freeze" values="0; 0; 1; 1" keyTimes="0; 0.617284; 0.864198; 1" keySplines="0 0 1 1; 0.333 0 0.667 1; 0 0 1 1" calcMode="spline" /><g transform="translate(462.548,375.755) scale(1,1) translate(0,0)"><g id="i5"><path d="M108.548,166.374C108.548,166.374,-112.548,166.374,-112.548,166.374C-112.548,166.374,-112.548,-166.374,-112.548,-166.374C-112.548,-166.374,108.548,-166.374,108.548,-166.374C110.757,-166.374,112.548,-164.583,112.548,-162.374C112.548,-162.374,112.548,162.374,112.548,162.374C112.548,164.583,110.757,166.374,108.548,166.374Z" fill="#f2cfe0"><animate repeatCount="indefinite" attributeName="d" dur="2.7s" begin="0s" calcMode="spline" values="M108.548,166.374C108.548,166.374,-112.548,166.374,-112.548,166.374C-112.548,166.374,-112.548,-166.374,-112.548,-166.374C-112.548,-166.374,108.548,-166.374,108.548,-166.374C110.757,-166.374,112.548,-164.583,112.548,-162.374C112.548,-162.374,112.548,162.374,112.548,162.374C112.548,164.583,110.757,166.374,108.548,166.374Z; M108.548,166.374C108.548,166.374,-112.548,166.374,-112.548,166.374C-112.548,166.374,-112.548,-166.374,-112.548,-166.374C-112.548,-166.374,108.548,-166.374,108.548,-166.374C110.757,-166.374,112.548,-164.583,112.548,-162.374C112.548,-162.374,112.548,162.374,112.548,162.374C112.548,164.583,110.757,166.374,108.548,166.374Z; M78.548,121.374C78.548,121.374,-112.548,166.374,-112.548,166.374C-112.548,166.374,-112.548,-166.374,-112.548,-166.374C-112.548,-166.374,78.548,-212.374,78.548,-212.374C80.757,-212.374,82.548,-210.583,82.548,-208.374C82.548,-208.374,82.548,117.374,82.548,117.374C82.548,119.583,80.757,121.374,78.548,121.374Z; M78.548,121.374C78.548,121.374,-112.548,166.374,-112.548,166.374C-112.548,166.374,-112.548,-166.374,-112.548,-166.374C-112.548,-166.374,78.548,-212.374,78.548,-212.374C80.757,-212.374,82.548,-210.583,82.548,-208.374C82.548,-208.374,82.548,117.374,82.548,117.374C82.548,119.583,80.757,121.374,78.548,121.374Z" keyTimes="0; 0.54321; 0.740741; 1" keySplines="0 0 1 1; 0 0 1 1; 0 0 1 1" fill="freeze" /></path></g></g></g><g transform="matrix(1,0,0,1,260.762,501.182)" id="i8"><g id="i5"><path stroke-linejoin="round" stroke-linecap="round" stroke-width="15" stroke="#788a9b" d="M-38.139,0"><set fill="freeze" dur="0.033s" begin="0.5s" to="M-38.139,0" attributeName="d" /><set fill="freeze" dur="0.033s" begin="0.5333333333333333s" to="M37.958,0C38.078,0,38.139,0,38.139,0M-38.139,0" attributeName="d" /><set fill="freeze" dur="0.033s" begin="0.5666666666666667s" to="M37.378,0C37.875,0,38.139,0,38.139,0M-38.139,0" attributeName="d" /><set fill="freeze" dur="0.033s" begin="0.6s" to="M36.33,0C37.497,0,38.139,0,38.139,0M-38.139,0" attributeName="d" /><set fill="freeze" dur="0.033s" begin="0.6333333333333333s" to="M34.725,0C36.895,0,38.139,0,38.139,0M-38.139,0" attributeName="d" /><set fill="freeze" dur="0.033s" begin="0.6666666666666666s" to="M32.443,0C36.002,0,38.139,0,38.139,0M-38.139,0" attributeName="d" /><set fill="freeze" dur="0.033s" begin="0.7s" to="M29.323,0C34.717,0,38.139,0,38.139,0M-38.139,0" attributeName="d" /><set fill="freeze" dur="0.033s" begin="0.7333333333333333s" to="M25.134,0C32.885,0,38.139,0,38.139,0M-38.139,0" attributeName="d" /><set fill="freeze" dur="0.033s" begin="0.7666666666666667s" to="M19.545,0C30.249,0,38.139,0,38.139,0M-38.139,0" attributeName="d" /><set fill="freeze" dur="0.033s" begin="0.8s" to="M12.076,0C26.369,0,38.139,0,38.139,0M-38.139,0" attributeName="d" /><set fill="freeze" dur="0.033s" begin="0.8333333333333334s" to="M2.127,0C20.461,0,38.139,0,38.139,0M-38.139,0" attributeName="d" /><set fill="freeze" dur="0.033s" begin="0.8666666666666667s" to="M-10.462,0C11.362,0,38.139,0,38.139,0M-38.139,0" attributeName="d" /><set fill="freeze" dur="0.033s" begin="0.9s" to="M-23.398,0C-1.226,0,38.139,0,38.139,0M-38.139,0" attributeName="d" /><set fill="freeze" dur="0.033s" begin="0.9333333333333333s" to="M-32.5,0C-14.855,0,38.139,0,38.139,0M-38.139,0" attributeName="d" /><set fill="freeze" dur="0.033s" begin="0.9666666666666667s" to="M-36.948,0C-27.271,0,38.139,0,38.139,0M-38.139,0" attributeName="d" /><set fill="freeze" dur="0.033s" begin="1s" to="M-38.139,0C-38.139,0,38.139,0,38.139,0" attributeName="d" /><set fill="freeze" dur="0.033s" begin="1.0333333333333334s" to="M-38.139,0C-38.139,0,38.139,0,38.139,0" attributeName="d" /><set fill="freeze" dur="0.033s" begin="1.0666666666666667s" to="M-38.139,0C-38.139,0,38.139,0,38.139,0" attributeName="d" /><set fill="freeze" dur="0.033s" begin="1.1s" to="M-38.139,0C-38.139,0,38.139,0,38.139,0" attributeName="d" /><set fill="freeze" dur="0.033s" begin="1.1333333333333333s" to="M-38.139,0C-38.139,0,38.139,0,38.139,0" attributeName="d" /><set fill="freeze" dur="0.033s" begin="1.1666666666666667s" to="M-38.139,0C-38.139,0,38.139,0,38.139,0" attributeName="d" /><set fill="freeze" dur="0.033s" begin="1.2s" to="M-38.139,0C-38.139,0,38.139,0,38.139,0" attributeName="d" /><set fill="freeze" dur="0.033s" begin="1.2333333333333334s" to="M-38.139,0C-38.139,0,38.139,0,38.139,0" attributeName="d" /><set fill="freeze" dur="0.033s" begin="1.2666666666666666s" to="M-38.139,0C-38.139,0,38.139,0,38.139,0" attributeName="d" /><set fill="freeze" dur="0.033s" begin="1.3s" to="M-38.139,0C-38.139,0,38.139,0,38.139,0" attributeName="d" /><set fill="freeze" dur="0.033s" begin="1.3333333333333333s" to="M-38.139,0C-38.139,0,38.139,0,38.139,0" attributeName="d" /><set fill="freeze" dur="0.033s" begin="1.3666666666666667s" to="M-38.139,0C-38.139,0,38.139,0,38.139,0" attributeName="d" /><set fill="freeze" dur="0.033s" begin="1.4s" to="M-38.139,0C-38.139,0,38.139,0,38.139,0" attributeName="d" /><set fill="freeze" dur="0.033s" begin="1.4333333333333333s" to="M-38.139,0C-38.139,0,38.139,0,38.139,0" attributeName="d" /><set fill="freeze" dur="0.033s" begin="1.4666666666666666s" to="M-38.139,0C-38.139,0,38.139,0,38.139,0" attributeName="d" /><set fill="freeze" dur="0.033s" begin="1.5s" to="M-38.139,0C-38.139,0,38.139,0,38.139,0" attributeName="d" /><set fill="freeze" dur="0.033s" begin="1.5333333333333334s" to="M-38.139,0C-38.139,0,38.139,0,38.139,0" attributeName="d" /><set fill="freeze" dur="0.033s" begin="1.5666666666666667s" to="M-38.139,0C-38.139,0,38.139,0,38.139,0" attributeName="d" /><set fill="freeze" dur="0.033s" begin="1.6s" to="M-38.139,0C-38.139,0,38.139,0,38.139,0" attributeName="d" /><set fill="freeze" dur="0.033s" begin="1.6333333333333333s" to="M-38.139,0C-38.139,0,38.139,0,38.139,0" attributeName="d" /><set fill="freeze" dur="0.033s" begin="1.6666666666666667s" to="M-38.139,0C-38.139,0,38.139,0,38.139,0" attributeName="d" /><set fill="freeze" dur="0.033s" begin="1.7s" to="M-38.139,0C-38.139,0,29.84,0,37.449,0" attributeName="d" /><set fill="freeze" dur="0.033s" begin="1.7333333333333334s" to="M-38.139,0C-38.139,0,19.709,0,34.651,0" attributeName="d" /><set fill="freeze" dur="0.033s" begin="1.7666666666666666s" to="M-38.139,0C-38.139,0,6.611,0,27.559,0" attributeName="d" /><set fill="freeze" dur="0.033s" begin="1.8s" to="M-38.139,0C-38.139,0,-8.599,0,13.715,0" attributeName="d" /><set fill="freeze" dur="0.033s" begin="1.8333333333333333s" to="M-38.139,0C-38.139,0,-19.088,0,-0.029,0" attributeName="d" /><set fill="freeze" dur="0.033s" begin="1.8666666666666667s" to="M-38.139,0C-38.139,0,-24.926,0,-9.499,0" attributeName="d" /><set fill="freeze" dur="0.033s" begin="1.9s" to="M-38.139,0C-38.139,0,-28.553,0,-16.178,0" attributeName="d" /><set fill="freeze" dur="0.033s" begin="1.9333333333333333s" to="M-38.139,0C-38.139,0,-31.031,0,-21.155,0" attributeName="d" /><set fill="freeze" dur="0.033s" begin="1.9666666666666666s" to="M-38.139,0C-38.139,0,-32.825,0,-25.002,0" attributeName="d" /><set fill="freeze" dur="0.033s" begin="2s" to="M-38.139,0C-38.139,0,-34.169,0,-28.041,0" attributeName="d" /><set fill="freeze" dur="0.033s" begin="2.033333333333333s" to="M-38.139,0C-38.139,0,-35.198,0,-30.472,0" attributeName="d" /><set fill="freeze" dur="0.033s" begin="2.066666666666667s" to="M-38.139,0C-38.139,0,-35.995,0,-32.425,0" attributeName="d" /><set fill="freeze" dur="0.033s" begin="2.1s" to="M-38.139,0C-38.139,0,-36.613,0,-33.992,0" attributeName="d" /><set fill="freeze" dur="0.033s" begin="2.1333333333333333s" to="M-38.139,0C-38.139,0,-37.09,0,-35.239,0" attributeName="d" /><set fill="freeze" dur="0.033s" begin="2.1666666666666665s" to="M-38.139,0C-38.139,0,-37.454,0,-36.215,0" attributeName="d" /><set fill="freeze" dur="0.033s" begin="2.2s" to="M-38.139,0C-38.139,0,-37.725,0,-36.959,0" attributeName="d" /><set fill="freeze" dur="0.033s" begin="2.2333333333333334s" to="M-38.139,0C-38.139,0,-37.919,0,-37.502,0" attributeName="d" /><set fill="freeze" dur="0.033s" begin="2.2666666666666666s" to="M-38.139,0C-38.139,0,-38.046,0,-37.866,0" attributeName="d" /><set fill="freeze" dur="0.033s" begin="2.3s" to="M-38.139,0C-38.139,0,-38.117,0,-38.073,0" attributeName="d" /><set fill="freeze" dur="0.033s" begin="2.3333333333333335s" to="M-38.139,0" attributeName="d" /></path></g></g><g id="i9"><g transform="translate(350.867,351.849)"><g transform="scale(1,1)"><animateTransform repeatCount="indefinite" type="scale" attributeName="transform" dur="2.7s" begin="0s" calcMode="spline" values="1 1; 1 1; -1 1; -1 1" keyTimes="0; 0.54321; 0.790124; 1" keySplines="0 0 1 1; 0.333 0 0.667 1; 0 0 1 1" fill="freeze" /><g transform="translate(97,0)"><g id="i5"><path d="M94.838,142.104C94.838,142.104,-97.867,190.28,-97.867,190.28C-97.867,190.28,-97.867,-142.468,-97.867,-142.468C-97.867,-142.468,92.897,-190.159,92.897,-190.159C95.422,-190.79,97.867,-188.881,97.867,-186.278C97.867,-186.278,97.867,138.224,97.867,138.224C97.868,140.059,96.618,141.659,94.838,142.104C94.838,142.104,94.838,142.104,94.838,142.104Z" fill="#f2cfe0"><animate repeatCount="indefinite" attributeName="d" dur="2.7s" begin="0s" calcMode="spline" values="M94.838,142.104C94.838,142.104,-97.867,190.28,-97.867,190.28C-97.867,190.28,-97.867,-142.468,-97.867,-142.468C-97.867,-142.468,92.897,-190.159,92.897,-190.159C95.422,-190.79,97.867,-188.881,97.867,-186.278C97.867,-186.278,97.867,138.224,97.867,138.224C97.868,140.059,96.618,141.659,94.838,142.104C94.838,142.104,94.838,142.104,94.838,142.104Z; M94.838,142.104C94.838,142.104,-97.867,190.28,-97.867,190.28C-97.867,190.28,-97.867,-142.468,-97.867,-142.468C-97.867,-142.468,92.897,-190.159,92.897,-190.159C95.422,-190.79,97.867,-188.881,97.867,-186.278C97.867,-186.278,97.867,138.224,97.867,138.224C97.868,140.059,96.618,141.659,94.838,142.104C94.838,142.104,94.838,142.104,94.838,142.104Z; M124.838,189.604C124.838,189.604,-97.867,190.28,-97.867,190.28C-97.867,190.28,-97.867,-142.468,-97.867,-142.468C-97.867,-142.468,122.897,-140.909,122.897,-140.909C125.422,-141.54,127.867,-139.631,127.867,-137.028C127.867,-137.028,127.867,185.724,127.867,185.724C127.868,187.559,126.618,189.159,124.838,189.604C124.838,189.604,124.838,189.604,124.838,189.604Z; M124.838,189.604C124.838,189.604,-97.867,190.28,-97.867,190.28C-97.867,190.28,-97.867,-142.468,-97.867,-142.468C-97.867,-142.468,122.897,-140.909,122.897,-140.909C125.422,-141.54,127.867,-139.631,127.867,-137.028C127.867,-137.028,127.867,185.724,127.867,185.724C127.868,187.559,126.618,189.159,124.838,189.604C124.838,189.604,124.838,189.604,124.838,189.604Z" keyTimes="0; 0.617284; 0.839506; 1" keySplines="0 0 1 1; 0.333 0 0.667 1; 0 0 1 1" fill="freeze" /></path></g></g></g></g></g><g opacity="0" visibility="hidden" id="i10"><animate repeatCount="indefinite" begin="0s" calcMode="discrete" dur="2.7s" values="hidden; visible; visible" keyTimes="0; 0.827; 1" attributeName="visibility" /><animate repeatCount="indefinite" attributeName="opacity" dur="2.7s" begin="0s" fill="freeze" values="0; 0; 1" keyTimes="0; 0.82716; 1" keySplines="0 0 1 1; 0.333 0 0.667 1" calcMode="spline" /><g transform="translate(350.867,351.849)"><g transform="scale(1,1)"><animateTransform repeatCount="indefinite" type="scale" attributeName="transform" dur="2.7s" begin="0s" calcMode="spline" values="1 1; 1 1; -1 1; -1 1" keyTimes="0; 0.493827; 0.740741; 1" keySplines="0 0 1 1; 0 0 1 1; 0 0 1 1" fill="freeze" /><g transform="translate(97,0)"><g id="i5"><path d="M94.838,142.104C94.838,142.104,-97.867,190.28,-97.867,190.28C-97.867,190.28,-97.867,-142.468,-97.867,-142.468C-97.867,-142.468,92.897,-190.159,92.897,-190.159C95.422,-190.79,97.867,-188.881,97.867,-186.278C97.867,-186.278,97.867,138.224,97.867,138.224C97.868,140.059,96.618,141.659,94.838,142.104C94.838,142.104,94.838,142.104,94.838,142.104Z" fill="#fbdfed"><animate repeatCount="indefinite" attributeName="d" dur="2.7s" begin="0s" calcMode="spline" values="M94.838,142.104C94.838,142.104,-97.867,190.28,-97.867,190.28C-97.867,190.28,-97.867,-142.468,-97.867,-142.468C-97.867,-142.468,92.897,-190.159,92.897,-190.159C95.422,-190.79,97.867,-188.881,97.867,-186.278C97.867,-186.278,97.867,138.224,97.867,138.224C97.868,140.059,96.618,141.659,94.838,142.104C94.838,142.104,94.838,142.104,94.838,142.104Z; M94.838,142.104C94.838,142.104,-97.867,190.28,-97.867,190.28C-97.867,190.28,-97.867,-142.468,-97.867,-142.468C-97.867,-142.468,92.897,-190.159,92.897,-190.159C95.422,-190.79,97.867,-188.881,97.867,-186.278C97.867,-186.278,97.867,138.224,97.867,138.224C97.868,140.059,96.618,141.659,94.838,142.104C94.838,142.104,94.838,142.104,94.838,142.104Z; M124.838,189.604C124.838,189.604,-97.867,190.28,-97.867,190.28C-97.867,190.28,-97.867,-142.468,-97.867,-142.468C-97.867,-142.468,122.897,-140.909,122.897,-140.909C125.422,-141.54,127.867,-139.631,127.867,-137.028C127.867,-137.028,127.867,185.724,127.867,185.724C127.868,187.559,126.618,189.159,124.838,189.604C124.838,189.604,124.838,189.604,124.838,189.604Z; M124.838,189.604C124.838,189.604,-97.867,190.28,-97.867,190.28C-97.867,190.28,-97.867,-142.468,-97.867,-142.468C-97.867,-142.468,122.897,-140.909,122.897,-140.909C125.422,-141.54,127.867,-139.631,127.867,-137.028C127.867,-137.028,127.867,185.724,127.867,185.724C127.868,187.559,126.618,189.159,124.838,189.604C124.838,189.604,124.838,189.604,124.838,189.604Z" keyTimes="0; 0.617284; 0.82716; 1" keySplines="0 0 1 1; 0 0 1 1; 0 0 1 1" fill="freeze" /></path></g></g></g></g></g><g id="i11"><g transform="translate(50.226,500.591)"><animateTransform repeatCount="indefinite" type="translate" attributeName="transform" dur="2.7s" begin="0s" calcMode="spline" values="50.226 500.591; 300.226 500.591; 225.226 500.591; 225.226 500.591; 50.226 500.591; 50.226 500.591" keyTimes="0; 0.185185; 0.37037; 0.493827; 0.617284; 1" keySplines="0.58 0 0.833 1; 0.81 0 0.667 1; 0 0 1 1; 0.333 0 0.667 1; 0 0 1 1" fill="freeze" /><g transform="rotate(-20)"><animateTransform repeatCount="indefinite" type="rotate" attributeName="transform" dur="2.7s" begin="0s" calcMode="spline" values="-20; 10; 10; -20; -20" keyTimes="0; 0.37037; 0.493827; 0.617284; 1" keySplines="0.333 0 0.667 1; 0.333 0 0.667 1; 0.333 0 0.667 1; 0 0 1 1" fill="freeze" /><g transform="scale(1,1) translate(-184.226,-494.591)"><g id="i12" transform="matrix(1,0,0,1,323.877,124.515)"><path fill="#ed509e" d="M12.575,30.514C12.575,30.514,-27.931,15.305,-27.931,15.305C-27.931,15.305,-13.236,-23.831,-13.236,-23.831C-11.236,-29.157,-5.297,-31.854,0.03,-29.854C0.03,-29.854,21.248,-21.887,21.248,-21.887C26.574,-19.887,29.271,-13.948,27.271,-8.621C27.271,-8.621,12.575,30.514,12.575,30.514Z" /></g><g id="i13" transform="matrix(1,0,0,1,262.692,285.96)"><path fill="#ea80b5" d="M-26.807,160.271C-26.807,160.271,-84.673,138.544,-84.673,138.544C-84.673,138.544,26.55,-157.676,26.55,-157.676C27.327,-159.744,29.633,-160.791,31.701,-160.015C31.701,-160.015,82.078,-141.1,82.078,-141.1C84.146,-140.323,85.193,-138.017,84.417,-135.949C84.417,-135.949,-26.807,160.271,-26.807,160.271Z" /></g><g id="i1" transform="matrix(1,0,0,1,277.158,290.816)"><path fill="#4c99e1" d="M42.423,-155.415C42.423,-155.415,-70.206,144.55,-70.206,144.55C-70.206,144.55,-41.273,155.415,-41.273,155.415C-41.273,155.415,69.95,-140.807,69.95,-140.807C70.727,-142.875,69.679,-145.181,67.611,-145.958C67.611,-145.958,42.423,-155.415,42.423,-155.415Z" /></g><g id="i2" transform="matrix(1,0,0,1,205.764,462.842)"><path fill="#788a9b" d="M-27.745,-38.339C-27.745,-38.339,-30.121,28.343,-30.121,28.343C-29.58,37.516,-18.423,41.705,-11.978,35.155C-11.978,35.155,30.121,-16.612,30.121,-16.612C30.121,-16.612,-27.745,-38.339,-27.745,-38.339Z" /></g><g id="i3" transform="matrix(1,0,0,1,205.764,468.274)"><path fill="#4c5863" d="M1.188,-32.907C1.188,-32.907,-30.121,22.912,-30.121,22.912C-29.58,32.085,-18.423,36.274,-11.978,29.724C-11.978,29.724,30.121,-22.043,30.121,-22.043C30.121,-22.043,1.188,-32.907,1.188,-32.907Z" /></g><g id="i4" transform="matrix(1,0,0,1,245.565,332.177)"><path fill="#788a9b" d="M-9.346,-62.948C-9.346,-62.948,48.509,-41.191,48.509,-41.191C48.509,-41.191,9.346,62.948,9.346,62.948C9.346,62.948,-48.509,41.191,-48.509,41.191C-48.509,41.191,-9.346,-62.948,-9.346,-62.948Z" /></g><g id="i5" transform="matrix(1,0,0,1,260.211,337.728)"><path fill="#4c5863" d="M-34.045,46.63C-34.045,46.63,5.118,-57.509,5.118,-57.509C5.118,-57.509,34.045,-46.63,34.045,-46.63C34.045,-46.63,-5.118,57.509,-5.118,57.509C-5.118,57.509,-34.045,46.63,-34.045,46.63Z" /></g></g></g></g></g></svg>