<svg xmlns="http://www.w3.org/2000/svg" width="1024" height="1024" viewBox="0 0 1024 1024" role="img" aria-labelledby="title desc">
  <title id="title">Grounded app icon</title>
  <desc id="desc">A rounded pastel calendar icon with the date 26.</desc>
  <defs>
    <clipPath id="iconShape">
      <rect width="1024" height="1024" rx="224"/>
    </clipPath>
    <clipPath id="calendarShape">
      <rect x="162" y="168" width="700" height="704" rx="104"/>
    </clipPath>
    <filter id="cardShadow" x="96" y="98" width="832" height="838" filterUnits="userSpaceOnUse" color-interpolation-filters="sRGB">
      <feDropShadow dx="0" dy="22" stdDeviation="28" flood-color="#5C6D93" flood-opacity="0.24"/>
      <feDropShadow dx="0" dy="4" stdDeviation="8" flood-color="#FFFFFF" flood-opacity="0.42"/>
    </filter>
  </defs>

  <g clip-path="url(#iconShape)">
    <rect width="1024" height="1024" fill="#A2BFFE"/>
    <path d="M0 650C134 586 250 600 360 690C482 790 610 812 742 732C838 674 928 680 1024 734V1024H0Z" fill="#E8FFD8"/>
    <path d="M0 0H1024V248C894 310 750 302 612 218C488 142 348 124 196 174C128 196 62 206 0 204Z" fill="#E2B3F2" opacity="0.55"/>
    <path d="M760 0H1024V442C920 410 832 342 780 248C736 168 722 82 760 0Z" fill="#FAB6DC" opacity="0.78"/>

    <g filter="url(#cardShadow)">
      <rect x="162" y="168" width="700" height="704" rx="104" fill="#FFF6C2"/>
    </g>

    <g clip-path="url(#calendarShape)">
      <rect x="162" y="168" width="700" height="704" fill="#FFF6C2"/>
      <rect x="162" y="168" width="700" height="224" fill="#FAB6DC"/>
      <rect x="162" y="342" width="700" height="54" fill="#E2B3F2" opacity="0.62"/>
      <path d="M162 778C272 728 354 742 458 798C568 858 684 856 862 764V872H162Z" fill="#E8FFD8"/>
    </g>

    <rect x="162" y="168" width="700" height="704" rx="104" fill="none" stroke="#FFFFFF" stroke-width="18" opacity="0.72"/>
    <rect x="196" y="402" width="632" height="10" rx="5" fill="#E2B3F2" opacity="0.6"/>

    <g>
      <rect x="288" y="76" width="104" height="214" rx="52" fill="#E2B3F2"/>
      <rect x="632" y="76" width="104" height="214" rx="52" fill="#E2B3F2"/>
      <rect x="318" y="84" width="44" height="178" rx="22" fill="#A2BFFE"/>
      <rect x="662" y="84" width="44" height="178" rx="22" fill="#A2BFFE"/>
      <circle cx="340" cy="270" r="44" fill="#FAB6DC"/>
      <circle cx="684" cy="270" r="44" fill="#FAB6DC"/>
      <circle cx="340" cy="270" r="20" fill="#FFF6C2"/>
      <circle cx="684" cy="270" r="20" fill="#FFF6C2"/>
    </g>

    <g fill="#FFFFFF" opacity="0.72">
      <rect x="240" y="238" width="68" height="16" rx="8"/>
      <rect x="716" y="238" width="68" height="16" rx="8"/>
      <circle cx="252" cy="302" r="10"/>
      <circle cx="292" cy="302" r="10"/>
      <circle cx="732" cy="302" r="10"/>
      <circle cx="772" cy="302" r="10"/>
    </g>

    <text x="512" y="675" fill="#26355F" font-family="-apple-system, BlinkMacSystemFont, 'Segoe UI', sans-serif" font-size="286" font-weight="900" text-anchor="middle" letter-spacing="0">26</text>

    <g opacity="0.95">
      <rect x="306" y="722" width="64" height="22" rx="11" fill="#FAB6DC"/>
      <rect x="406" y="722" width="64" height="22" rx="11" fill="#E2B3F2"/>
      <rect x="506" y="722" width="64" height="22" rx="11" fill="#A2BFFE"/>
      <rect x="606" y="722" width="64" height="22" rx="11" fill="#E8FFD8"/>
    </g>
  </g>
</svg>
